# File created by Blade
# Date/Time:  Mon Sep 22 17:46:01 2014
# Frame Rate: 120.000 fps
#------------------------------------------------------
:FULLY-SPECIFIED
:DEGREES
2550
root 5.666848 36.634975 5.338310 -11.281395 -32.769752 -0.377854
RightUpLeg -15.791819 -50.159705 -20.034697
RightLeg 83.377986 -0.000000 -0.000000
RightFoot -5.113605 -29.984211 16.149424
RightToeBase -4.932212 -0.000000 0.000000
LeftUpLeg 21.032206 13.341711 -7.311042
LeftLeg -7.459635 -0.000000 0.000000
LeftFoot -12.176368 25.832572 -10.469504
LeftToeBase 1.204100 -0.000000 -0.000000
Spine 21.895780 -2.575290 -20.239991
RightShoulder -0.253697 -31.135135 -4.404156
RightArm 17.244370 -19.773615 69.932929
RightForeArm 9.495188 0.000000 46.012757
RightHand -2.872535 0.000000 -13.440499
RightHandThumb1 -24.326973 -0.000000 -32.862282
LeftShoulder -16.274154 30.165924 3.950467
LeftArm 55.782478 -30.478815 -75.290415
LeftForeArm 29.176271 -0.000000 111.184987
LeftHand -31.391269 -0.000000 15.758716
LeftHandThumb1 -26.253704 0.000000 33.147579
Head 25.539011 19.414941 15.440012
2551
root 5.667860 36.637255 5.342733 -11.143253 -32.619299 -0.447887
RightUpLeg -15.390420 -49.655760 -20.296699
RightLeg 82.913912 -0.000000 -0.000000
RightFoot -4.833364 -29.886014 15.888507
RightToeBase -5.005787 -0.000000 0.000000
LeftUpLeg 20.947352 13.170543 -7.312342
LeftLeg -7.483992 -0.000000 0.000000
LeftFoot -12.130892 25.872404 -10.328491
LeftToeBase 1.300987 -0.000000 -0.000000
Spine 21.791175 -2.571577 -20.058085
RightShoulder -0.306087 -31.208744 -4.352560
RightArm 17.279902 -19.754207 69.916213
RightForeArm 9.475236 -0.000000 45.926994
RightHand -2.852020 -0.000000 -13.452464
RightHandThumb1 -24.326973 -0.000000 -32.862282
LeftShoulder -16.229831 30.134876 3.946461
LeftArm 55.968602 -30.126066 -75.177984
LeftForeArm 29.194236 0.000000 110.806020
LeftHand -31.286847 -0.000000 16.025151
LeftHandThumb1 -26.253704 0.000000 33.147579
Head 25.575815 19.185156 15.546735
2552
root 5.670679 36.639511 5.348250 -11.005401 -32.445449 -0.543709
RightUpLeg -14.948744 -49.072839 -20.582307
RightLeg 82.476478 -0.000000 -0.000000
RightFoot -4.672695 -29.800451 15.990098
RightToeBase -4.559012 -0.000000 0.000000
LeftUpLeg 20.882388 12.982675 -7.296667
LeftLeg -7.518382 -0.000000 0.000000
LeftFoot -12.103620 25.910006 -10.256355
LeftToeBase 1.294415 -0.000000 -0.000000
Spine 21.715029 -2.588973 -19.840182
RightShoulder -0.326119 -31.248306 -4.345557
RightArm 17.282277 -19.780069 69.916991
RightForeArm 9.615285 -0.000000 45.813547
RightHand -2.687525 -0.000000 -13.554747
RightHandThumb1 -24.326973 -0.000000 -32.862282
LeftShoulder -16.199030 30.118369 3.906729
LeftArm 56.210104 -29.757352 -75.077563
LeftForeArm 29.251342 -0.000000 110.452861
LeftHand -31.445935 -0.000000 15.608284
LeftHandThumb1 -26.253704 0.000000 33.147579
Head 25.613747 18.984218 15.669119
2553
root 5.669853 36.643123 5.354207 -10.901392 -32.256482 -0.633831
RightUpLeg -14.391859 -48.473475 -20.944604
RightLeg 82.036589 -0.000000 -0.000000
RightFoot -4.350076 -29.756457 15.804171
RightToeBase -4.752643 -0.000000 0.000000
LeftUpLeg 20.842862 12.845772 -7.259035
LeftLeg -7.529603 -0.000000 0.000000
LeftFoot -12.079588 25.898709 -10.202560
LeftToeBase 1.268077 -0.000000 -0.000000
Spine 21.673485 -2.593894 -19.653902
RightShoulder -0.322245 -31.237304 -4.319715
RightArm 17.228709 -19.755313 69.954642
RightForeArm 9.562950 -0.000000 45.729858
RightHand -2.829664 -0.000000 -13.482618
RightHandThumb1 -24.326973 -0.000000 -32.862282
LeftShoulder -16.117733 30.074471 3.958549
LeftArm 56.349997 -29.391178 -74.925516
LeftForeArm 29.283406 -0.000000 110.097043
LeftHand -31.542708 -0.000000 15.740410
LeftHandThumb1 -26.253704 0.000000 33.147579
Head 25.626269 18.710418 15.773221
2554
root 5.665776 36.648897 5.360113 -10.808522 -32.068116 -0.747838
RightUpLeg -13.751727 -47.734668 -21.310814
RightLeg 81.621041 -0.000000 -0.000000
RightFoot -4.362550 -29.576381 15.940483
RightToeBase -4.575088 -0.000000 0.000000
LeftUpLeg 20.831134 12.793783 -7.165397
LeftLeg -7.527970 -0.000000 0.000000
LeftFoot -12.053337 25.806558 -10.128619
LeftToeBase 1.292145 -0.000000 -0.000000
Spine 21.663474 -2.609509 -19.463422
RightShoulder -0.285896 -31.289608 -4.289697
RightArm 17.266980 -19.766281 69.913874
RightForeArm 9.671460 -0.000000 45.609503
RightHand -2.742586 -0.000000 -13.412458
RightHandThumb1 -24.326973 -0.000000 -32.862282
LeftShoulder -16.041563 30.009561 4.033876
LeftArm 56.434789 -29.026965 -74.759728
LeftForeArm 29.274320 -0.000000 109.760381
LeftHand -31.563173 -0.000000 15.808171
LeftHandThumb1 -26.253704 0.000000 33.147579
Head 25.626374 18.428608 15.914232
